PathFileType	4	(X/Y/Z)	Kaydara																																																																																																																									
DataRate	CameraRate	NumFrames	NumMarkers	Units	OrigDataRate	OrigDataStartFrame	OrigNumFrames																																																																																																																					
30	30	7	41	mm	30	84	167																																																																																																																					
Frame#	Time	PAIB_LFHD			PAIB_RFHD			PAIB_LBHD			PAIB_RBHD			PAIB_LFTShould			PAIB_RFTShould			PAIB_LRRShould			PAIB_RRRShould			PAIB_T10			PAIB_STRN			PAIB_TRUN			PAIB_LSHO			PAIB_LUPA			PAIB_LELB			PAIB_LFRM			PAIB_LWRA			PAIB_LWRB			PAIB_LFIN			PAIB_RSHO			PAIB_RUPA			PAIB_RELB			PAIB_RFRM			PAIB_RWRA			PAIB_RWRB			PAIB_RFIN			PAIB_LFWT			PAIB_RFWT			PAIB_LBWT			PAIB_RBWT			PAIB_LTHI			PAIB_LKNE			PAIB_LSHN			PAIB_LANK			PAIB_LHEE			PAIB_LTOE			PAIB_RTHI			PAIB_RKNE			PAIB_RSHN			PAIB_RANK			PAIB_RHEE			PAIB_RTOE		
		X1	Y1	Z1	X2	Y2	Z2	X3	Y3	Z3	X4	Y4	Z4	X5	Y5	Z5	X6	Y6	Z6	X7	Y7	Z7	X8	Y8	Z8	X9	Y9	Z9	X10	Y10	Z10	X11	Y11	Z11	X12	Y12	Z12	X13	Y13	Z13	X14	Y14	Z14	X15	Y15	Z15	X16	Y16	Z16	X17	Y17	Z17	X18	Y18	Z18	X19	Y19	Z19	X20	Y20	Z20	X21	Y21	Z21	X22	Y22	Z22	X23	Y23	Z23	X24	Y24	Z24	X25	Y25	Z25	X26	Y26	Z26	X27	Y27	Z27	X28	Y28	Z28	X29	Y29	Z29	X30	Y30	Z30	X31	Y31	Z31	X32	Y32	Z32	X33	Y33	Z33	X34	Y34	Z34	X35	Y35	Z35	X36	Y36	Z36	X37	Y37	Z37	X38	Y38	Z38	X39	Y39	Z39	X40	Y40	Z40	X41	Y41	Z41
																																																																																																																												
84	2.777	251.77462	1637.41806	-1053.0127	67.16769	1634.20731	-1070.3611	271.84446	1603.5495	-1176.62628	69.20778	1611.57486	-1184.33456	225.45797	1364.57626	-1065.12215	103.15397	1359.03946	-1076.98715	246.63651	1440.70847	-1204.52248	92.40316	1436.82556	-1207.54547	176.88545	1287.3175	-1300.48492	170.80818	1293.0397	-1039.12689	171.41237	1189.4722	-1028.85071	359.20273	1384.16931	-1131.30974	433.40305	1165.01511	-1134.90692	461.67736	1084.13994	-1169.95178	472.41112	981.68404	-1094.4236	402.86762	904.75594	-979.81789	443.95691	862.99812	-1035.70778	451.10737	850.97458	-963.24242	-21.80629	1365.90439	-1147.01591	-80.39422	1209.33617	-1236.63246	-102.1699	1098.78029	-1273.01453	-129.01793	962.5766	-1285.75729	-87.99037	829.06563	-1216.35414	-148.7996	835.66887	-1275.3743	-150.94384	781.74957	-1223.59451	294.05657	914.24393	-1103.34846	61.2351	927.58629	-1080.7373	204.58273	968.72192	-1311.6658	62.17176	961.20354	-1299.88632	243.77239	743.44551	-1354.19357	284.00688	483.30128	-1351.50543	251.55315	298.42785	-1407.74796	234.35577	150.21986	-1550.47165	175.5769	157.96955	-1594.5369	225.00893	67.80178	-1400.13367	8.31356	655.3775	-1179.96895	18.27556	473.64658	-992.10297	78.51212	316.37905	-900.20378	49.43614	100.03416	-890.55847	112.39509	84.85401	-943.76511	76.81338	136.41095	-725.79185
85	2.81	249.34515	1636.42044	-1011.09352	64.94126	1633.84125	-1028.86742	269.7443	1601.6655	-1134.44504	67.15024	1610.45792	-1142.75497	222.21554	1364.54926	-1021.35635	99.90847	1359.03137	-1033.31528	244.13126	1438.49701	-1162.19849	89.78432	1434.44412	-1165.40283	174.41479	1283.34702	-1255.88501	167.33238	1293.47076	-994.25331	168.11489	1190.22438	-981.75583	356.27663	1383.16238	-1087.46109	429.24507	1163.40004	-1089.55017	457.29698	1082.37488	-1124.78455	468.33195	979.59442	-1049.92416	399.09355	901.81839	-935.61867	439.97334	860.41634	-991.81969	447.50435	847.98203	-919.5842	-24.9221	1365.17868	-1103.67126	-82.85295	1206.75598	-1190.90004	-104.15336	1095.46227	-1225.42374	-130.46681	959.00131	-1235.90408	-88.64861	826.51016	-1164.94164	-149.91806	832.27951	-1223.49792	-151.15725	778.76793	-1171.1161	290.51624	910.88791	-1052.51816	58.79119	926.62842	-1029.22585	200.09182	966.11183	-1261.1113	56.77839	959.85519	-1248.47328	238.57525	743.57277	-1306.55365	286.56519	484.29867	-1306.02325	254.58242	301.73832	-1379.4368	241.54661	167.78936	-1536.26862	183.17812	179.54437	-1580.01205	226.41243	67.42535	-1398.4375	9.62463	654.25613	-1127.4752	23.81565	467.98748	-947.10007	86.61712	305.43396	-864.78798	59.22215	86.92236	-882.75879	118.61115	82.79696	-930.50308	84.84833	96.14244	-712.23038
86	2.843	247.01527	1640.66574	-968.96278	62.4391	1638.69781	-986.36986	266.92884	1605.67337	-1092.26166	64.34168	1615.22873	-1100.28214	219.58521	1369.70306	-976.15807	97.08871	1363.67371	-987.63092	240.80423	1440.96725	-1118.5215	86.38445	1436.17859	-1120.98412	170.46946	1283.28262	-1207.35809	164.36197	1299.26636	-947.06581	164.89189	1196.37268	-932.06734	353.6335	1386.21078	-1043.81508	424.32941	1165.448	-1045.59853	450.85617	1083.94035	-1080.71823	463.42312	979.84718	-1009.01207	396.28189	898.47092	-896.11916	436.7289	859.09378	-954.08127	445.1263	844.52888	-882.23831	-27.93324	1367.59506	-1057.94426	-85.92031	1207.0076	-1141.37222	-106.86399	1094.38004	-1172.58888	-132.4883	957.74132	-1180.1313	-89.18655	827.02484	-1106.84692	-151.08025	831.15227	-1164.86595	-151.49913	778.84773	-1111.29677	286.19556	911.97868	-1001.66023	54.48986	930.69244	-978.61267	195.96842	970.50415	-1209.26842	52.6307	965.85495	-1197.92877	236.76287	742.10274	-1253.38127	289.65321	485.82729	-1249.16389	257.5725	306.04349	-1339.62418	249.33249	191.61592	-1512.04132	191.66656	209.05499	-1554.71237	227.68476	67.13579	-1396.55121	10.70342	658.5762	-1082.78275	24.23681	473.25165	-899.59862	94.25574	303.45802	-832.07207	56.90809	93.76127	-861.26472	115.53633	86.89428	-916.36627	94.38671	82.27347	-688.49205
87	2.877	244.69212	1647.21832	-926.72531	59.95836	1645.23621	-943.44009	264.09813	1611.99112	-1050.01221	61.4992	1621.51855	-1057.37503	216.10691	1377.46811	-930.99136	94.06245	1371.24191	-942.01485	237.44986	1446.84357	-1073.87863	83.1944	1441.78787	-1076.00708	167.05208	1288.06931	-1161.70784	160.83799	1307.48276	-900.5352	161.03645	1204.84146	-883.73634	350.37682	1393.14407	-998.41431	418.81054	1171.37711	-1003.54073	443.11848	1089.99794	-1040.54451	457.9718	983.2357	-973.4288	394.49551	896.20819	-862.38251	433.28083	859.86084	-923.30856	443.9418	841.94427	-852.45598	-31.00591	1373.97354	-1010.87532	-88.97444	1210.17448	-1087.40379	-109.55612	1096.86111	-1115.49881	-134.60184	959.87778	-1118.39455	-89.61994	831.78764	-1041.59828	-152.35747	833.73001	-1098.93158	-151.85339	783.24142	-1043.66936	280.23731	917.7713	-951.39526	48.73163	939.71771	-930.32059	195.5451	973.71185	-1160.29488	51.8305	972.37076	-1150.30151	236.49614	734.35066	-1194.80675	294.43584	484.0604	-1172.49298	263.21857	308.97692	-1282.87491	257.74178	223.34719	-1472.27859	199.68645	249.34193	-1509.84955	226.60582	68.22789	-1403.6908	2.22749	665.17929	-1036.14227	26.76288	480.50488	-853.07701	92.46985	299.91302	-806.2986	56.87525	87.22022	-852.05147	113.74706	90.19898	-910.11551	92.16212	70.29816	-683.95653
88	2.91	242.95628	1653.71338	-884.61838	58.06946	1651.92505	-900.29907	261.56429	1617.87918	-1007.87498	58.94891	1627.75085	-1014.22287	213.70611	1384.51614	-887.35153	92.03452	1378.39783	-896.93336	233.9385	1454.07135	-1030.55504	79.77818	1448.40149	-1030.65102	162.64894	1294.8616	-1117.9557	159.37698	1314.8996	-856.04599	159.33843	1212.09717	-838.92433	347.50126	1401.16119	-954.65195	413.23105	1178.5746	-963.40569	436.55762	1097.56912	-1003.43605	453.03741	987.68166	-941.69647	393.07732	894.43954	-833.54874	429.96967	861.85753	-897.95349	443.04096	839.73129	-828.45306	-33.70296	1381.87057	-962.87704	-92.80573	1215.3627	-1032.80777	-112.92654	1101.18752	-1057.70424	-136.77434	963.53745	-1053.30688	-89.79236	840.14259	-970.63789	-153.09027	838.59764	-1026.9175	-151.60738	791.02188	-968.61565	276.02657	921.99608	-905.91347	43.98637	946.71402	-884.89395	194.15396	974.74403	-1115.95642	50.21002	978.02544	-1105.625	236.74377	714.69543	-1131.92123	297.56565	474.25232	-1082.89658	262.62894	313.46319	-1210.47241	262.05227	256.43061	-1408.18832	209.71313	294.27887	-1443.56705	226.30579	79.38874	-1377.491	-1.70434	671.95824	-996.38145	23.2234	475.23846	-828.29704	94.41641	296.31723	-792.0134	56.97158	89.17579	-851.31554	111.70179	92.22102	-908.48824	94.31759	65.96162	-683.04245
89	2.943	241.87197	1660.82062	-842.87666	56.8096	1659.78226	-857.12372	259.42476	1624.31946	-966.08749	56.8038	1635.02701	-971.02005	214.33649	1390.8728	-845.2034	92.29131	1384.85886	-852.47467	230.80879	1461.49155	-988.62175	76.46722	1455.29602	-985.61897	157.68893	1302.1904	-1074.69955	161.01845	1320.75424	-813.64288	161.29932	1217.90398	-796.73676	346.32462	1408.33069	-914.97093	408.97869	1184.61281	-925.79567	432.05875	1104.21173	-968.01857	449.42223	992.29256	-912.42584	391.05686	892.82784	-808.89709	427.13425	863.76167	-875.07309	441.29852	837.98088	-807.59964	-34.98003	1388.6113	-914.5192	-96.80507	1220.65994	-977.95128	-118.045	1105.42892	-998.85674	-140.06098	967.3967	-985.45227	-89.27271	850.47935	-895.83733	-153.51903	844.17847	-950.6221	-150.96919	801.44073	-889.49585	273.42844	927.12685	-862.7021	41.12721	952.77641	-842.27684	193.90291	976.77055	-1074.99413	49.70961	986.45042	-1062.65755	237.21304	696.88828	-1065.56114	298.16114	457.10182	-987.20047	259.79254	319.50174	-1124.62723	258.65856	282.60935	-1328.94379	204.61641	323.22876	-1358.69537	230.93349	101.37925	-1314.32816	-3.28061	679.0963	-969.46632	21.43682	474.49127	-810.20378	92.92221	293.96835	-781.96915	56.15222	87.21888	-848.16254	111.51552	94.1442	-907.60483	95.5238	64.71171	-682.15942
90	2.977	241.78541	1667.93167	-801.51375	56.42192	1667.17072	-814.50096	258.03635	1631.09024	-924.66545	55.30454	1642.40417	-928.22197	215.81974	1397.92542	-804.72755	93.67432	1391.56113	-809.20815	228.05054	1468.237	-948.18306	73.65864	1462.11029	-942.03217	152.98293	1309.49509	-1033.52196	163.23769	1327.77954	-772.01401	163.98735	1224.83109	-755.3196	346.04668	1415.10284	-877.85973	408.07095	1190.92651	-893.11928	429.12567	1111.17157	-936.82861	446.99871	997.34802	-886.10443	388.7447	892.26654	-788.08228	426.50917	867.24808	-855.22247	438.95641	837.67776	-788.72383	-34.91768	1394.7905	-867.52426	-100.19493	1225.73471	-922.52991	-123.29672	1109.74663	-938.47244	-143.37214	972.43324	-915.05241	-87.94979	862.99614	-818.99376	-153.86436	851.70052	-871.66756	-149.16111	814.43153	-807.17384	270.89754	936.07712	-820.17082	38.33845	958.86177	-802.74498	194.74007	983.46962	-1034.03336	50.46276	995.58617	-1022.14333	234.98329	694.38866	-1002.33604	296.03054	459.53445	-893.37517	259.44794	327.26543	-1030.7814	251.22103	291.8903	-1234.95178	195.25904	330.8395	-1263.78975	231.63305	112.44746	-1211.42342	-3.74979	688.02528	-944.1185	20.55555	475.34901	-795.86487	89.51592	291.91505	-775.31425	55.61329	88.20125	-849.00208	111.46457	95.51607	-907.37244	95.55657	64.46202	-682.44576
